<svg width="1024" height="1024" viewBox="0 0 1024 1024" xmlns="http://www.w3.org/2000/svg">
  <defs>
    <linearGradient id="coin" x1="0" y1="0" x2="0" y2="1">
      <stop offset="0" stop-color="#fde68a"/>
      <stop offset="1" stop-color="#f59e0b"/>
    </linearGradient>
  </defs>

  <!-- Transparent bg; Android applies adaptiveIcon.backgroundColor (#10b981).
       Foreground stays inside the central ~66% safe area. -->
  <g transform="translate(512 512) scale(0.78)">
    <rect x="-308" y="-184" width="656" height="396" rx="64" fill="#000000" opacity="0.10"/>
    <rect x="-324" y="-200" width="656" height="396" rx="64" fill="#ffffff"/>
    <path d="M -324 -136 Q -324 -200 -260 -200 H 268 Q 332 -200 332 -136 V -64 H -324 Z" fill="#ecfdf5"/>
    <rect x="-324" y="-64" width="656" height="6" fill="#a7f3d0"/>
    <path d="M 332 8 H 180 Q 100 8 100 88 Q 100 168 180 168 H 332 Z" fill="#10b981"/>
    <circle cx="216" cy="88" r="64" fill="url(#coin)" stroke="#ffffff" stroke-width="6"/>
    <g fill="#ffffff" transform="translate(216 88) scale(2.2)">
      <path d="M-2,-22 L2,-22 L2,-17 C8,-16 12,-12 13,-7 L7,-7 C6,-10 4,-11 0,-11 L-2,-11 C-5,-11 -7,-9 -7,-6 C-7,-3 -5,-2 -1,-1 L3,1 C10,3 13,6 13,12 C13,17 9,20 2,21 L2,26 L-2,26 L-2,21 C-9,20 -13,16 -14,10 L-8,10 C-7,13 -5,15 -1,15 L2,15 C6,15 8,13 8,10 C8,7 6,6 1,4 L-3,3 C-9,1 -12,-1 -12,-7 C-12,-12 -8,-15 -2,-17 Z"/>
    </g>
  </g>
</svg>
