<svg width="1024" height="1024" viewBox="0 0 1024 1024" xmlns="http://www.w3.org/2000/svg">
  <!-- Soft off-white background (iOS rounds the corners) -->
  <rect width="1024" height="1024" fill="#F4F6F8"/>

  <!-- Back bill (taller, leans right) -->
  <g transform="translate(580 350) rotate(7)">
    <rect x="-150" y="-230" width="300" height="460" rx="30"
          fill="#6FCB6F" stroke="#173B5F" stroke-width="22" stroke-linejoin="round"/>
    <rect x="-128" y="-208" width="256" height="416" rx="20"
          fill="none" stroke="#173B5F" stroke-width="6" opacity="0.45"/>
    <circle cx="-100" cy="-180" r="32" fill="none" stroke="#173B5F" stroke-width="10" opacity="0.6"/>
    <circle cx="100" cy="-180" r="32" fill="none" stroke="#173B5F" stroke-width="10" opacity="0.6"/>
    <circle cx="0" cy="-40" r="62" fill="#A6E1A6" stroke="#173B5F" stroke-width="10"/>
    <g transform="translate(0 -40) scale(1.8)" fill="#173B5F">
      <path d="M-2,-22 L2,-22 L2,-17 C8,-16 12,-12 13,-7 L7,-7 C6,-10 4,-11 0,-11 L-2,-11 C-5,-11 -7,-9 -7,-6 C-7,-3 -5,-2 -1,-1 L3,1 C10,3 13,6 13,12 C13,17 9,20 2,21 L2,26 L-2,26 L-2,21 C-9,20 -13,16 -14,10 L-8,10 C-7,13 -5,15 -1,15 L2,15 C6,15 8,13 8,10 C8,7 6,6 1,4 L-3,3 C-9,1 -12,-1 -12,-7 C-12,-12 -8,-15 -2,-17 Z"/>
    </g>
  </g>

  <!-- Front bill (shorter, leans left) -->
  <g transform="translate(430 410) rotate(-7)">
    <rect x="-130" y="-200" width="260" height="400" rx="28"
          fill="#A6E1A6" stroke="#173B5F" stroke-width="22" stroke-linejoin="round"/>
    <rect x="-108" y="-178" width="216" height="356" rx="18"
          fill="none" stroke="#173B5F" stroke-width="6" opacity="0.45"/>
    <circle cx="-82" cy="-150" r="28" fill="none" stroke="#173B5F" stroke-width="10" opacity="0.6"/>
    <circle cx="82" cy="-150" r="28" fill="none" stroke="#173B5F" stroke-width="10" opacity="0.6"/>
    <circle cx="0" cy="-10" r="54" fill="#6FCB6F" stroke="#173B5F" stroke-width="10"/>
    <g transform="translate(0 -10) scale(1.55)" fill="#173B5F">
      <path d="M-2,-22 L2,-22 L2,-17 C8,-16 12,-12 13,-7 L7,-7 C6,-10 4,-11 0,-11 L-2,-11 C-5,-11 -7,-9 -7,-6 C-7,-3 -5,-2 -1,-1 L3,1 C10,3 13,6 13,12 C13,17 9,20 2,21 L2,26 L-2,26 L-2,21 C-9,20 -13,16 -14,10 L-8,10 C-7,13 -5,15 -1,15 L2,15 C6,15 8,13 8,10 C8,7 6,6 1,4 L-3,3 C-9,1 -12,-1 -12,-7 C-12,-12 -8,-15 -2,-17 Z"/>
    </g>
  </g>

  <!-- Pocket -->
  <g>
    <!-- Soft drop shadow -->
    <path d="M 130 545 Q 130 492 184 492 L 840 492 Q 894 492 894 545 L 894 818 Q 894 848 866 860 L 580 920 Q 512 938 444 920 L 158 860 Q 130 848 130 818 Z"
          fill="#173B5F" opacity="0.12" transform="translate(0 16)"/>
    <!-- Pocket body -->
    <path d="M 130 545 Q 130 492 184 492 L 840 492 Q 894 492 894 545 L 894 818 Q 894 848 866 860 L 580 920 Q 512 938 444 920 L 158 860 Q 130 848 130 818 Z"
          fill="#A6CEF0" stroke="#173B5F" stroke-width="26" stroke-linejoin="round"/>
    <!-- Dashed inner stitching -->
    <path d="M 178 572 Q 178 532 218 532 L 806 532 Q 846 532 846 572 L 846 798 Q 846 820 824 830 L 575 880 Q 512 896 449 880 L 200 830 Q 178 820 178 798 Z"
          fill="none" stroke="#173B5F" stroke-width="7" stroke-dasharray="22,18" stroke-linejoin="round"/>
    <!-- Brand text inside pocket -->
    <g font-family="Helvetica, Arial, sans-serif" font-weight="900" fill="#4A9D4A" text-anchor="middle">
      <text x="512" y="708" font-size="92">Pocket Cash</text>
      <text x="512" y="820" font-size="92">Calculator</text>
    </g>
  </g>
</svg>
